<svg width="16" height="16" viewBox="0 0 16 16" fill="none" xmlns="http://www.w3.org/2000/svg">
<path d="M3.33333 14H12.6667C13.402 14 14 13.402 14 12.6667V5.33333C14.0001 5.24578 13.9829 5.15906 13.9494 5.07818C13.9158 4.99729 13.8667 4.92383 13.8047 4.862L11.138 2.19533C11.0762 2.13331 11.0027 2.08411 10.9218 2.05059C10.841 2.01707 10.7542 1.99987 10.6667 2H3.33333C2.598 2 2 2.598 2 3.33333V12.6667C2 13.402 2.598 14 3.33333 14ZM10 12.6667H6V9.33333H10V12.6667ZM8.66667 4.66667H7.33333V3.33333H8.66667V4.66667ZM3.33333 3.33333H4.66667V6H10V3.33333H10.3907L12.6667 5.60933L12.6673 12.6667H11.3333V9.33333C11.3333 8.598 10.7353 8 10 8H6C5.26467 8 4.66667 8.598 4.66667 9.33333V12.6667H3.33333V3.33333Z" fill="white"/>
</svg>
