<svg width="36" height="36" viewBox="0 0 36 36" fill="none" xmlns="http://www.w3.org/2000/svg">
<circle cx="18" cy="18" r="18" fill="#00D9D5"/>
<path d="M23.8333 9.66667H12.1667C11.7246 9.66667 11.3007 9.84227 10.9882 10.1548C10.6756 10.4674 10.5 10.8913 10.5 11.3333V22.1667C10.5 22.6087 10.6756 23.0326 10.9882 23.3452C11.3007 23.6577 11.7246 23.8333 12.1667 23.8333H15.5L18 26.3333L20.5 23.8333H23.8333C24.2754 23.8333 24.6993 23.6577 25.0118 23.3452C25.3244 23.0326 25.5 22.6087 25.5 22.1667V11.3333C25.5 10.8913 25.3244 10.4674 25.0118 10.1548C24.6993 9.84227 24.2754 9.66667 23.8333 9.66667ZM18 12.1667C19.4392 12.1667 20.5 13.2267 20.5 14.6667C20.5 16.1067 19.4392 17.1667 18 17.1667C16.5617 17.1667 15.5 16.1067 15.5 14.6667C15.5 13.2267 16.5617 12.1667 18 12.1667ZM13.9808 21.3333C14.4458 19.8975 16.0608 18.8333 18 18.8333C19.9392 18.8333 21.555 19.8975 22.0192 21.3333H13.9808Z" fill="#002060"/>
</svg>
