<svg width="14" height="14" viewBox="0 0 14 14" fill="none" xmlns="http://www.w3.org/2000/svg">
<path d="M7 1.12512C9.6925 1.12512 11.875 3.30762 11.875 6.00012C11.875 8.06012 10.4275 10.3051 7.57 12.7591C7.41111 12.8956 7.20853 12.9706 6.99906 12.9704C6.7896 12.9702 6.58715 12.8949 6.4285 12.7581L6.2395 12.5941C3.5085 10.2041 2.125 8.01412 2.125 6.00012C2.125 3.30762 4.3075 1.12512 7 1.12512ZM7 4.12512C6.50272 4.12512 6.02581 4.32267 5.67417 4.6743C5.32254 5.02593 5.125 5.50284 5.125 6.00012C5.125 6.4974 5.32254 6.97432 5.67417 7.32595C6.02581 7.67758 6.50272 7.87512 7 7.87512C7.49728 7.87512 7.9742 7.67758 8.32583 7.32595C8.67746 6.97432 8.875 6.4974 8.875 6.00012C8.875 5.50284 8.67746 5.02593 8.32583 4.6743C7.9742 4.32267 7.49728 4.12512 7 4.12512Z" fill="#002060"/>
</svg>
