<svg width="36" height="36" viewBox="0 0 36 36" fill="none" xmlns="http://www.w3.org/2000/svg">
<circle cx="18" cy="18" r="18" fill="#EBEDF7"/>
<g clip-path="url(#clip0_6601_4)">
<path d="M17.3834 25.6772C12.8428 19.0947 12 18.4192 12 16C12 12.6863 14.6863 10 18 10C21.3137 10 24 12.6863 24 16C24 18.4192 23.1572 19.0947 18.6166 25.6772C18.3187 26.1076 17.6813 26.1076 17.3834 25.6772ZM18 18.5C19.3807 18.5 20.5 17.3807 20.5 16C20.5 14.6193 19.3807 13.5 18 13.5C16.6193 13.5 15.5 14.6193 15.5 16C15.5 17.3807 16.6193 18.5 18 18.5Z" fill="#6A6A6A"/>
</g>
<defs>
<clipPath id="clip0_6601_4">
<rect width="12" height="16" fill="white" transform="translate(12 10)"/>
</clipPath>
</defs>
</svg>
