<svg width="22" height="25" viewBox="0 0 22 25" fill="none" xmlns="http://www.w3.org/2000/svg">
<path d="M11 25C12.5177 25 13.7487 23.7689 13.7487 22.25H8.25132C8.25132 23.7689 9.48237 25 11 25ZM20.2551 18.5671C19.4249 17.6751 17.8716 16.3332 17.8716 11.9375C17.8716 8.59883 15.5307 5.92617 12.3742 5.27047V4.375C12.3742 3.61574 11.7589 3 11 3C10.2412 3 9.62589 3.61574 9.62589 4.375V5.27047C6.4694 5.92617 4.12847 8.59883 4.12847 11.9375C4.12847 16.3332 2.57515 17.6751 1.74499 18.5671C1.48718 18.8443 1.37288 19.1756 1.37503 19.5C1.37976 20.2047 1.93276 20.875 2.75433 20.875H19.2457C20.0673 20.875 20.6207 20.2047 20.625 19.5C20.6272 19.1756 20.5129 18.8439 20.2551 18.5671Z" fill="#002060"/>
<circle cx="17" cy="5" r="3.75" fill="#FE0000" stroke="#F7F8FC" stroke-width="1.5"/>
</svg>
