<svg width="56" height="14" viewBox="0 0 56 14" fill="none" xmlns="http://www.w3.org/2000/svg">
<path d="M26.9998 5.17775C25.9963 5.17775 25.1774 5.99669 25.1774 7.00021C25.1774 8.00373 25.9963 8.82267 26.9998 8.82267C28.0033 8.82267 28.8223 8.00373 28.8223 7.00021C28.8223 5.99669 28.0033 5.17775 26.9998 5.17775ZM32.4658 7.00021C32.4658 6.24552 32.4727 5.49767 32.4303 4.74435C32.3879 3.86935 32.1883 3.09279 31.5485 2.45295C30.9072 1.81173 30.132 1.61349 29.257 1.57111C28.5024 1.52873 27.7545 1.53556 27.0012 1.53556C26.2465 1.53556 25.4986 1.52873 24.7453 1.57111C23.8703 1.61349 23.0938 1.8131 22.4539 2.45295C21.8127 3.09416 21.6145 3.86935 21.5721 4.74435C21.5297 5.49904 21.5365 6.24689 21.5365 7.00021C21.5365 7.75353 21.5297 8.50275 21.5721 9.25607C21.6145 10.1311 21.8141 10.9076 22.4539 11.5475C23.0951 12.1887 23.8703 12.3869 24.7453 12.4293C25.5 12.4717 26.2479 12.4649 27.0012 12.4649C27.7559 12.4649 28.5037 12.4717 29.257 12.4293C30.132 12.3869 30.9086 12.1873 31.5485 11.5475C32.1897 10.9063 32.3879 10.1311 32.4303 9.25607C32.474 8.50275 32.4658 7.7549 32.4658 7.00021ZM26.9998 9.80431C25.4481 9.80431 24.1957 8.55197 24.1957 7.00021C24.1957 5.44845 25.4481 4.19611 26.9998 4.19611C28.5516 4.19611 29.8039 5.44845 29.8039 7.00021C29.8039 8.55197 28.5516 9.80431 26.9998 9.80431ZM29.9188 4.73615C29.5565 4.73615 29.2639 4.44357 29.2639 4.08127C29.2639 3.71896 29.5565 3.42638 29.9188 3.42638C30.2811 3.42638 30.5736 3.71896 30.5736 4.08127C30.5738 4.1673 30.5569 4.2525 30.524 4.33201C30.4911 4.41151 30.4429 4.48375 30.3821 4.54458C30.3212 4.60541 30.249 4.65365 30.1695 4.68652C30.09 4.71939 30.0048 4.73626 29.9188 4.73615Z" fill="#002060"/>
<g clip-path="url(#clip0_6530_3)">
<path d="M11.9995 7.03649C11.9995 3.70199 9.31305 0.998993 5.99955 0.998993C2.68455 0.999743 -0.00195312 3.70199 -0.00195312 7.03724C-0.00195312 10.05 2.19255 12.5475 5.06055 13.0005V8.78174H3.53805V7.03724H5.06205V5.70599C5.06205 4.19324 5.9583 3.35774 7.32855 3.35774C7.98555 3.35774 8.6718 3.47549 8.6718 3.47549V4.96049H7.91505C7.1703 4.96049 6.9378 5.42624 6.9378 5.90399V7.03649H8.6013L8.3358 8.78099H6.93705V12.9997C9.80505 12.5467 11.9995 10.0492 11.9995 7.03649Z" fill="#002060"/>
</g>
<g clip-path="url(#clip1_6530_3)">
<path d="M49 0.875C45.6176 0.875 42.875 3.61758 42.875 7C42.875 10.3824 45.6176 13.125 49 13.125C52.3824 13.125 55.125 10.3824 55.125 7C55.125 3.61758 52.3824 0.875 49 0.875ZM51.9436 5.49199C51.9477 5.55625 51.9477 5.62324 51.9477 5.68887C51.9477 7.6959 50.4191 10.0078 47.626 10.0078C46.7646 10.0078 45.9662 9.75762 45.2936 9.32695C45.4166 9.34062 45.5342 9.34609 45.66 9.34609C46.3709 9.34609 47.0244 9.10547 47.5453 8.69805C46.8781 8.68438 46.3176 8.24688 46.1262 7.64531C46.36 7.67949 46.5705 7.67949 46.8111 7.61797C46.4676 7.54817 46.1588 7.3616 45.9372 7.08994C45.7157 6.81828 45.595 6.47829 45.5957 6.12773V6.10859C45.7967 6.22207 46.0332 6.2918 46.2807 6.30137C46.0726 6.16273 45.902 5.9749 45.784 5.75453C45.6659 5.53417 45.6041 5.28808 45.6039 5.03809C45.6039 4.75508 45.6777 4.49668 45.8104 4.27246C46.1917 4.74187 46.6675 5.12578 47.2069 5.39925C47.7463 5.67272 48.3372 5.82962 48.9412 5.85977C48.7266 4.82754 49.4977 3.99219 50.4246 3.99219C50.8621 3.99219 51.2559 4.17539 51.5334 4.4707C51.8766 4.40645 52.2047 4.27793 52.4973 4.10566C52.3838 4.45703 52.1459 4.75371 51.8301 4.94102C52.1363 4.9082 52.4316 4.82344 52.7051 4.70449C52.4986 5.00801 52.2402 5.27734 51.9436 5.49199Z" fill="#002060"/>
</g>
<defs>
<clipPath id="clip0_6530_3">
<rect width="12" height="12" fill="white" transform="translate(0 1)"/>
</clipPath>
<clipPath id="clip1_6530_3">
<rect width="14" height="14" fill="white" transform="translate(42)"/>
</clipPath>
</defs>
</svg>
